# xmcd
#
# Track frame offsets: 
#        182
#        13230
#        26730
#        41472
#        59117
#        72667
#        89005
#        102277
#        113887
#        129327
#        146870
#        162645
#        177825
#        195577
#        217717
#        233987
#        252857
#        273950
#        300582
#        318747
#        339405
#
# Disc length: 4799 seconds
#
# Revision: 0
# Processed by: cddbd v1.5.2PL0 Copyright (c) Steve Scherf et al.
# Submitted via: ExactAudioCopy v0.99pb5
#
DISCID=3e12bd15
DTITLE=New York City - The Best Of New York City
DYEAR=1999
DGENRE=Soul
TTITLE0=I'm Doin' Fine Now
TTITLE1=Hang Your Head In Shame
TTITLE2=Make Me Twice The Man
TTITLE3=By The Time I Get To Phoenix
TTITLE4=Sanity
TTITLE5=Hang On Sloopy
TTITLE6=Set The Record Straight
TTITLE7=Quick, Fast, In A Hurry
TTITLE8=Uncle James
TTITLE9=Ain't It So
TTITLE10=Reach Out
TTITLE11=Happiness Is
TTITLE12=I've Had Enough
TTITLE13=Can't Survive Without My Sweets
TTITLE14=Darling Take Me Back
TTITLE15=Got To Get You Back In My Life
TTITLE16=Do You Remember Yesterday
TTITLE17=Only You
TTITLE18=Take My Hand
TTITLE19=Can't Go On Without You
TTITLE20=Love Is What You Make It
EXTD=
EXTT0=
EXTT1=
EXTT2=
EXTT3=
EXTT4=
EXTT5=
EXTT6=
EXTT7=
EXTT8=
EXTT9=
EXTT10=
EXTT11=
EXTT12=
EXTT13=
EXTT14=
EXTT15=
EXTT16=
EXTT17=
EXTT18=
EXTT19=
EXTT20=
PLAYORDER=
